PathFileType	4	(X/Y/Z)	 s11c0301.trc
DataRate	CameraRate	NumFrames	NumMarkers	Units	OrigDataRate	OrigDataStartFrame	OrigNumFrames
200	200	4	48	mm	200	1751	2000
Frame#	Time	racr			lacr			c7			jug			rlel			rdr			llel			ldr			s2			lic			ric			lasi			rasi			rpsi			lpsi			rgt			lgt			rth1			rth2			rth3			rth4			rlfc			rmfc			rsh1			rsh2			rsh3			rsh4			rlmal			rcal			rtoe			rmt5			lth1			lth2			lth4			lth3			llfc			lmfc			llmal			lcal			lmt5			lsh1			lsh2			lsh3			lsh4			ltoe			SBIKE			LBIKE			RBIKE			
		X1	Y1	Z1	X2	Y2	Z2	X3	Y3	Z3	X4	Y4	Z4	X5	Y5	Z5	X6	Y6	Z6	X7	Y7	Z7	X8	Y8	Z8	X9	Y9	Z9	X10	Y10	Z10	X11	Y11	Z11	X12	Y12	Z12	X13	Y13	Z13	X14	Y14	Z14	X15	Y15	Z15	X16	Y16	Z16	X17	Y17	Z17	X18	Y18	Z18	X19	Y19	Z19	X20	Y20	Z20	X21	Y21	Z21	X22	Y22	Z22	X23	Y23	Z23	X24	Y24	Z24	X25	Y25	Z25	X26	Y26	Z26	X27	Y27	Z27	X28	Y28	Z28	X29	Y29	Z29	X30	Y30	Z30	X31	Y31	Z31	X32	Y32	Z32	X33	Y33	Z33	X34	Y34	Z34	X35	Y35	Z35	X36	Y36	Z36	X37	Y37	Z37	X38	Y38	Z38	X39	Y39	Z39	X40	Y40	Z40	X41	Y41	Z41	X42	Y42	Z42	X43	Y43	Z43	X44	Y44	Z44	X45	Y45	Z45	X46	Y46	Z46	X47	Y47	Z47	X48	Y48	Z48	
1751	8.7550	804.965610	1374.364013	-63.320471	799.059477	1370.385732	-408.115936	777.398430	1468.053980	-236.201878	754.765594	1286.906995	-236.138860	677.250959	1149.424426	71.249980	796.087934	928.220668	-33.792820	630.953607	1140.979554	-553.898237	798.182584	938.254318	-449.717605	173.495117	1291.590527	-239.880244	408.084092	1279.892817	-430.676763	376.538872	1239.024900	-33.322668	417.556044	1204.188158	-382.821330	393.908177	1178.829386	-68.870899	232.844747	1348.447655	-177.036248	229.595348	1351.322381	-272.717963	253.199142	1101.445201	-34.668290	321.817412	1178.596161	-454.008504	275.550365	970.236894	-26.278537	314.015167	889.335682	-34.401397	308.511970	804.143220	-55.680502	350.241540	896.705328	-37.548853	335.523999	704.661035	-77.502683	338.666357	684.821451	-201.512093	278.410987	558.241779	-63.741207	276.396685	470.923970	-77.165598	231.589832	396.179452	-81.406344	305.987947	465.275884	-102.235907	187.421146	267.056255	-93.380173	129.015173	280.195452	-144.908648	373.206426	128.245543	-133.197714	295.865561	131.940962	-66.486132	440.680144	1095.222272	-464.117780	518.451076	1059.987644	-455.329268	540.173876	1085.426765	-438.675795	571.432260	987.126324	-457.392096	657.609102	890.020361	-437.592672	663.221089	872.130011	-303.832206	311.556706	644.610006	-413.531363	254.057041	672.359040	-379.461024	303.519827	469.153528	-439.333007	562.806518	821.069877	-455.649058	511.031298	753.861218	-440.879230	430.401807	718.225217	-436.094495	532.728456	730.670141	-419.686428	365.585627	395.841770	-370.317108	-204.111514	957.620185	-260.921782	1.508090	82.671489	-460.987278	-15.190602	81.078316	-62.415507	
1752	8.7600	804.694198	1374.754094	-65.118446	797.096459	1371.016405	-409.733018	776.035501	1468.393168	-237.389964	753.733726	1287.169857	-237.809601	678.325022	1149.973204	70.582325	796.345446	928.031358	-33.834012	629.402536	1140.095078	-554.672423	798.033772	938.294723	-449.804116	172.456904	1291.971494	-238.044722	405.895994	1281.149562	-431.442911	378.322488	1238.607365	-32.852834	416.174997	1206.101329	-382.288364	394.006949	1178.496109	-69.686402	232.236330	1349.025729	-174.356182	228.198853	1351.548434	-270.878116	252.692887	1101.720802	-34.231795	320.510298	1179.739473	-453.411794	273.697219	971.181017	-26.235629	310.828862	889.958556	-34.350953	304.050031	804.860052	-54.963603	347.374790	897.083417	-37.352568	329.988353	704.217425	-76.934828	334.519658	684.148732	-201.168848	272.009938	558.556491	-63.461011	269.110646	471.218394	-76.892930	223.403587	397.036896	-81.259261	298.879755	465.405532	-101.683796	178.732632	267.917519	-93.557539	120.749972	282.255735	-145.051164	362.810486	126.922348	-133.430831	285.593190	131.484050	-66.708711	441.075119	1097.789831	-463.306114	519.277725	1063.596912	-454.025102	540.626392	1089.347949	-437.463657	573.243936	991.521202	-455.936720	661.607044	895.771955	-435.565392	666.522650	877.966066	-301.523601	318.737611	645.545332	-412.710350	260.266337	672.102831	-378.843509	314.100008	470.029594	-438.832484	568.281238	825.331005	-453.349287	517.494646	757.266618	-438.955390	437.497628	720.265178	-434.743326	539.418603	734.447511	-417.383200	377.354068	397.857610	-369.820399	-204.161672	957.622094	-260.962323	1.489101	82.682365	-460.993646	-15.188748	81.095427	-62.429054	
1753	8.7650	804.379645	1374.880797	-66.921769	795.108417	1371.527986	-411.262019	774.802834	1468.627678	-238.532470	752.608344	1287.411007	-239.294530	679.141208	1150.550557	70.038806	796.530191	927.884310	-33.822592	627.865011	1139.171611	-555.322851	797.885109	938.333604	-449.888720	171.575014	1292.306765	-236.511010	403.531949	1282.477597	-432.090946	379.245915	1238.260973	-33.200687	414.644785	1208.009923	-381.932311	394.072790	1178.511548	-70.790955	231.473012	1349.882885	-172.081869	226.781596	1352.040697	-269.299093	252.446150	1102.197141	-33.726144	319.034316	1180.986700	-452.971393	272.544520	972.524934	-26.404291	308.345532	890.895634	-34.291814	300.327590	805.779244	-54.236141	344.767032	897.552242	-37.627036	325.101904	704.168218	-76.075908	331.304568	683.783873	-200.458085	266.258658	559.377490	-63.003937	262.490571	472.046351	-76.440047	215.978515	398.321245	-81.183775	292.139665	465.958158	-101.284179	170.274875	269.708619	-93.554754	112.284565	285.236776	-144.931822	352.576758	126.264606	-133.705068	275.351807	131.780926	-66.967684	441.292367	1100.088811	-462.463165	519.845063	1067.011587	-452.776295	540.811972	1093.190453	-436.346570	574.820047	995.674297	-454.495911	665.478152	901.927180	-432.616940	669.529738	883.652121	-299.085263	325.682376	645.798232	-411.769354	266.299412	671.162203	-378.319757	324.583629	470.238293	-438.241474	573.063429	829.391210	-451.368817	523.669340	760.094571	-436.767543	444.301808	721.660496	-433.311104	545.733141	737.816233	-414.856121	389.125526	399.282074	-369.346699	-204.191440	957.618215	-260.948831	1.493349	82.683723	-460.996412	-15.183232	81.084135	-62.438651	
1754	8.7700	804.026910	1375.019084	-68.311034	793.274936	1371.884204	-412.620076	773.718219	1468.793259	-239.632217	751.377249	1287.700114	-240.708411	679.665152	1150.942530	69.502746	796.644586	927.760258	-33.799207	626.295369	1138.269865	-556.042461	797.736623	938.370966	-449.971409	170.498507	1292.796653	-235.069817	400.989282	1284.001060	-432.619163	380.150030	1238.098191	-33.655095	412.998448	1209.982026	-381.966654	394.020521	1178.739439	-72.244840	231.038224	1350.044580	-170.950868	225.353570	1352.712438	-267.836929	252.456963	1102.880196	-33.311302	317.293953	1182.303194	-452.802002	271.433349	974.165334	-26.358124	306.507516	892.250919	-34.200679	297.489608	807.173310	-53.461146	342.910604	898.474176	-37.671852	321.110421	704.552542	-74.984678	328.897945	683.934615	-199.678887	261.322529	560.586480	-62.496724	256.846497	473.950956	-75.860911	208.943449	400.284786	-80.967608	286.046481	466.836231	-100.762822	161.721187	272.056080	-93.810303	104.216227	288.371352	-145.046635	342.350725	126.045159	-133.982341	265.080891	132.831458	-67.117656	441.245435	1102.242582	-461.697373	520.152300	1070.296276	-451.596766	541.031677	1097.260292	-436.250877	576.123843	999.700028	-452.987175	668.346715	907.299135	-430.558312	672.050149	889.354545	-296.429084	332.586103	645.781207	-411.074990	272.201461	669.460131	-377.713552	335.064679	469.731331	-437.412243	577.720772	832.583606	-448.884030	529.448198	762.450347	-434.506859	450.770808	722.574316	-431.824540	551.635613	740.764760	-412.164274	400.804658	400.224294	-368.885974	-204.227612	957.635163	-260.959423	1.485300	82.673601	-460.988144	-15.198663	81.078880	-62.430856	
